<mxfile host="drawio-plugin" modified="2025-03-04T14:55:38.746Z" agent="Mozilla/5.0 (X11; Linux x86_64) AppleWebKit/537.36 (KHTML, like Gecko) Chrome/122.0.0.0 Safari/537.36" version="22.1.22" etag="8isZiubcemjWeFGfH8fI" type="embed">
  <diagram id="0" name="Page-1">
    <mxGraphModel dx="8790" dy="3600" grid="1" gridSize="10" guides="1" tooltips="1" connect="1" arrows="1" fold="1" page="1" pageScale="1" pageWidth="4000" pageHeight="4000" math="0" shadow="0">
      <root>
        <mxCell id="0" />
        <mxCell id="1" parent="0" />
        <mxCell id="1607441442583102477" value="Webex EQ CODEC, CS-CODEC-EQ-NR++" style="rounded=0;whiteSpace=wrap;html=1;" parent="1" connectable="" vertex="1">
          <mxGeometry x="1860" y="3420" width="200" height="1200" as="geometry" />
        </mxCell>
        <mxCell id="1263370545280648812" value="Webex EQ CODEC, CS-CODEC-EQ-NR++" style="rounded=0;whiteSpace=wrap;html=1;" parent="1" connectable="" vertex="1">
          <mxGeometry x="1500" y="3400" width="160" height="90" as="geometry" />
        </mxCell>
        <mxCell id="6564691004680712142" value="Webex EQ CODEC, CS-CODEC-EQ-NR++" style="rounded=0;whiteSpace=wrap;html=1;" parent="1" connectable="" vertex="1">
          <mxGeometry x="1500" y="3540" width="160" height="90" as="geometry" />
        </mxCell>
        <mxCell id="9495504178832124482" value="DA HD 4K Plus, 60-1607-01" style="rounded=0;whiteSpace=wrap;html=1;" parent="1" connectable="" vertex="1">
          <mxGeometry x="1500" y="3680" width="160" height="90" as="geometry" />
        </mxCell>
        <mxCell id="4858038538464779208" value="232-ATSC 4K HDTV, 5114-001" style="rounded=0;whiteSpace=wrap;html=1;" parent="1" connectable="" vertex="1">
          <mxGeometry x="1500" y="3820" width="160" height="90" as="geometry" />
        </mxCell>
        <mxCell id="1648253463496100915" value="DTP 4K 230 Tx, 60-1271-12" style="rounded=0;whiteSpace=wrap;html=1;" parent="1" connectable="" vertex="1">
          <mxGeometry x="1500" y="4240" width="160" height="90" as="geometry" />
        </mxCell>
        <mxCell id="3356485135520638352" value="DTP 4K 230 Tx, 60-1271-12" style="rounded=0;whiteSpace=wrap;html=1;" parent="1" connectable="" vertex="1">
          <mxGeometry x="1500" y="4380" width="160" height="90" as="geometry" />
        </mxCell>
        <mxCell id="2493728563173406530" value="DTP 4K 230 Tx, 60-1271-12" style="rounded=0;whiteSpace=wrap;html=1;" parent="1" connectable="" vertex="1">
          <mxGeometry x="1500" y="4520" width="160" height="90" as="geometry" />
        </mxCell>
        <mxCell id="3561639963322773773" value="DTP 4K 230 Tx, 60-1271-12" style="rounded=0;whiteSpace=wrap;html=1;" parent="1" connectable="" vertex="1">
          <mxGeometry x="1500" y="4660" width="160" height="90" as="geometry" />
        </mxCell>
        <mxCell id="3861267183182244159" value="TEST" style="rounded=0;whiteSpace=wrap;html=1;" parent="1" connectable="" vertex="1">
          <mxGeometry x="1100" y="3400" width="160" height="90" as="geometry" />
        </mxCell>
        <mxCell id="7157506848751344940" value="OneLink Bridge" style="rounded=0;whiteSpace=wrap;html=1;" parent="1" connectable="" vertex="1">
          <mxGeometry x="1100" y="3540" width="160" height="90" as="geometry" />
        </mxCell>
        <mxCell id="6656962260601311107" value="BYOD" style="rounded=0;whiteSpace=wrap;html=1;" parent="1" connectable="" vertex="1">
          <mxGeometry x="1100" y="4240" width="160" height="90" as="geometry" />
        </mxCell>
        <mxCell id="5441453978120517772" value="BYOD" style="rounded=0;whiteSpace=wrap;html=1;" parent="1" connectable="" vertex="1">
          <mxGeometry x="1100" y="4380" width="160" height="90" as="geometry" />
        </mxCell>
        <mxCell id="9590169636417382752" value="BYOD" style="rounded=0;whiteSpace=wrap;html=1;" parent="1" connectable="" vertex="1">
          <mxGeometry x="1100" y="4520" width="160" height="90" as="geometry" />
        </mxCell>
        <mxCell id="2846797542239746920" value="BYOD" style="rounded=0;whiteSpace=wrap;html=1;" parent="1" connectable="" vertex="1">
          <mxGeometry x="1100" y="4660" width="160" height="90" as="geometry" />
        </mxCell>
        <mxCell id="6256564172385219666" value="Vaddio Roboshot 12E, 999-99600-100" style="rounded=0;whiteSpace=wrap;html=1;" parent="1" connectable="" vertex="1">
          <mxGeometry x="700" y="3400" width="160" height="90" as="geometry" />
        </mxCell>
      </root>
    </mxGraphModel>
  </diagram>
</mxfile>
